<?xml version="1.0" encoding="UTF-8"?>
<svg version="1.1" xmlns="http://www.w3.org/2000/svg" width="256" height="256">
<path d="M0 0 C3.02711016 -0.30385765 5.84587474 -0.41986798 8.875 -0.3984375 C10.19540283 -0.40274277 10.19540283 -0.40274277 11.54248047 -0.40713501 C13.40527997 -0.40917828 15.2681008 -0.40363009 17.13085938 -0.39111328 C19.98876741 -0.37506308 22.84526116 -0.39095282 25.703125 -0.41015625 C27.5104198 -0.40817386 29.31771372 -0.40433029 31.125 -0.3984375 C31.98335449 -0.40451019 32.84170898 -0.41058289 33.72607422 -0.4168396 C36.1328125 -0.38818359 36.1328125 -0.38818359 40 0 C42.42130331 3.63195496 42.21022785 5.38349348 42.125 9.6875 C42.10695312 10.86699219 42.08890625 12.04648438 42.0703125 13.26171875 C42.04710937 14.16535156 42.02390625 15.06898437 42 16 C43.64704422 15.99333817 43.64704422 15.99333817 45.32736206 15.98654175 C55.65746009 15.94606032 65.9875421 15.91604676 76.31770134 15.89637566 C81.62898938 15.88592271 86.94021356 15.87173603 92.25146484 15.84912109 C97.37372595 15.82744648 102.4959255 15.81544277 107.61822891 15.81024551 C109.5759287 15.80654006 111.53362498 15.79930459 113.49129868 15.78853989 C116.22588221 15.77409643 118.9602089 15.77201904 121.69482422 15.77294922 C122.91833588 15.76216339 122.91833588 15.76216339 124.16656494 15.75115967 C129.77189568 15.77189568 129.77189568 15.77189568 132 18 C132.88585117 23.23801788 133.12542496 28.30374011 133.12698364 33.62107849 C133.12854363 34.34435257 133.13010362 35.06762664 133.13171089 35.81281811 C133.13566874 38.21304264 133.13255161 40.61320284 133.12939453 43.01342773 C133.1307509 44.74382565 133.13253216 46.47422328 133.13470459 48.20462036 C133.13925121 52.88849307 133.13750067 57.57234368 133.1343255 62.25621676 C133.13178718 67.16739888 133.13414358 72.07857916 133.13571167 76.98976135 C133.13752923 85.23707416 133.13513806 93.48437801 133.13037109 101.73168945 C133.12493108 111.2531247 133.12669091 120.77453852 133.1321975 130.29597324 C133.13674254 138.48389507 133.13737231 146.67181048 133.13475883 154.85973316 C133.13320348 159.74425009 133.13298189 164.62875697 133.13629532 169.51327324 C133.13919418 174.10729978 133.13716141 178.70129883 133.13140106 183.29532242 C133.13008417 184.97667076 133.13044929 186.65802143 133.13266373 188.33936882 C133.13850655 193.22817765 133.09478258 198.11206881 133 203 C132.99867915 204.33152855 132.99867915 204.33152855 132.99733162 205.68995667 C132.35957256 220.0527647 116.91033409 234.09827118 106.82014656 243.45243263 C79.91419585 267.26746892 39.05842544 260.87798514 5.66589475 259.28226304 C-4.75503307 258.79427116 -15.17685617 258.58319491 -25.60664296 258.384691 C-40.95553616 258.08455863 -56.30110001 257.68667067 -71.63923645 257.03112411 C-73.28633865 256.96117751 -74.93357316 256.89427299 -76.5809288 256.83057404 C-78.82052297 256.74246068 -81.05915275 256.64171883 -83.29800415 256.53659058 C-84.55164576 256.48128614 -85.80528736 256.42598171 -87.09691811 256.36900139 C-90 256 -90 256 -92 254 C-92.19817933 250.90843005 -92.26911252 247.9062945 -92.25396729 244.81347656 C-92.25708727 243.84946049 -92.26020725 242.88544441 -92.26342177 241.89221573 C-92.27143914 238.64162444 -92.2650636 235.39121789 -92.25878906 232.140625 C-92.26149727 229.81848033 -92.26505723 227.49633651 -92.26940918 225.17419434 C-92.27855576 218.85204477 -92.27497959 212.52996021 -92.26865101 206.20780945 C-92.26411381 200.27346488 -92.26756962 194.33912849 -92.2705054 188.40478373 C-92.27621338 175.93490462 -92.26964347 163.46505489 -92.25890467 150.99518061 C-92.24996872 140.28713694 -92.25152064 129.57913663 -92.26074219 118.87109375 C-92.27143657 106.44692648 -92.27566402 94.02278497 -92.26951766 81.59861374 C-92.26639261 75.01792102 -92.26600325 68.4372582 -92.27259064 61.85656738 C-92.27834938 55.67113762 -92.27439428 49.4857901 -92.26280212 43.30036926 C-92.26014763 41.02427813 -92.26093398 38.74818012 -92.26532745 36.47209167 C-92.27075332 33.37680742 -92.26398493 30.28179044 -92.25396729 27.18652344 C-92.25842873 26.27544956 -92.26289017 25.36437569 -92.26748681 24.42569351 C-92.22829998 18.22829998 -92.22829998 18.22829998 -90 16 C-87.19850486 15.81186179 -84.49663997 15.7482499 -81.69482422 15.77294922 C-80.83621796 15.77265717 -79.97761169 15.77236511 -79.09298706 15.77206421 C-76.24678543 15.77346078 -73.40084356 15.78903727 -70.5546875 15.8046875 C-68.58456566 15.80841647 -66.61444198 15.81126399 -64.64431763 15.81326294 C-59.45256452 15.82090854 -54.26092286 15.84056496 -49.06921387 15.8626709 C-43.7740225 15.8831094 -38.47881317 15.89226038 -33.18359375 15.90234375 C-22.78901346 15.92380999 -12.39451599 15.95795708 -2 16 C-2.02320312 15.09636719 -2.04640625 14.19273438 -2.0703125 13.26171875 C-2.08835937 12.08222656 -2.10640625 10.90273437 -2.125 9.6875 C-2.14820312 8.51574219 -2.17140625 7.34398437 -2.1953125 6.13671875 C-2 3 -2 3 0 0 Z " fill="#FEDD75" transform="translate(108,0)"/>
<path d="M0 0 C3.02711016 -0.30385765 5.84587474 -0.41986798 8.875 -0.3984375 C10.19540283 -0.40274277 10.19540283 -0.40274277 11.54248047 -0.40713501 C13.40527997 -0.40917828 15.2681008 -0.40363009 17.13085938 -0.39111328 C19.98876741 -0.37506308 22.84526116 -0.39095282 25.703125 -0.41015625 C27.5104198 -0.40817386 29.31771372 -0.40433029 31.125 -0.3984375 C31.98335449 -0.40451019 32.84170898 -0.41058289 33.72607422 -0.4168396 C36.1328125 -0.38818359 36.1328125 -0.38818359 40 0 C42.42130331 3.63195496 42.21022785 5.38349348 42.125 9.6875 C42.10695312 10.86699219 42.08890625 12.04648438 42.0703125 13.26171875 C42.04710937 14.16535156 42.02390625 15.06898437 42 16 C43.64704422 15.99333817 43.64704422 15.99333817 45.32736206 15.98654175 C55.65746009 15.94606032 65.9875421 15.91604676 76.31770134 15.89637566 C81.62898938 15.88592271 86.94021356 15.87173603 92.25146484 15.84912109 C97.37372595 15.82744648 102.4959255 15.81544277 107.61822891 15.81024551 C109.5759287 15.80654006 111.53362498 15.79930459 113.49129868 15.78853989 C116.22588221 15.77409643 118.9602089 15.77201904 121.69482422 15.77294922 C122.91833588 15.76216339 122.91833588 15.76216339 124.16656494 15.75115967 C129.77189568 15.77189568 129.77189568 15.77189568 132 18 C132.88585117 23.23801788 133.12542496 28.30374011 133.12698364 33.62107849 C133.12854363 34.34435257 133.13010362 35.06762664 133.13171089 35.81281811 C133.13566874 38.21304264 133.13255161 40.61320284 133.12939453 43.01342773 C133.1307509 44.74382565 133.13253216 46.47422328 133.13470459 48.20462036 C133.13925121 52.88849307 133.13750067 57.57234368 133.1343255 62.25621676 C133.13178718 67.16739888 133.13414358 72.07857916 133.13571167 76.98976135 C133.13752923 85.23707416 133.13513806 93.48437801 133.13037109 101.73168945 C133.12493108 111.2531247 133.12669091 120.77453852 133.1321975 130.29597324 C133.13674254 138.48389507 133.13737231 146.67181048 133.13475883 154.85973316 C133.13320348 159.74425009 133.13298189 164.62875697 133.13629532 169.51327324 C133.13919418 174.10729978 133.13716141 178.70129883 133.13140106 183.29532242 C133.13008417 184.97667076 133.13044929 186.65802143 133.13266373 188.33936882 C133.13850655 193.22817765 133.09478258 198.11206881 133 203 C132.99867915 204.33152855 132.99867915 204.33152855 132.99733162 205.68995667 C132.35957256 220.0527647 116.91033409 234.09827118 106.82014656 243.45243263 C79.91419585 267.26746892 39.05842544 260.87798514 5.66589475 259.28226304 C-4.75503307 258.79427116 -15.17685617 258.58319491 -25.60664296 258.384691 C-40.95553616 258.08455863 -56.30110001 257.68667067 -71.63923645 257.03112411 C-73.28633865 256.96117751 -74.93357316 256.89427299 -76.5809288 256.83057404 C-78.82052297 256.74246068 -81.05915275 256.64171883 -83.29800415 256.53659058 C-84.55164576 256.48128614 -85.80528736 256.42598171 -87.09691811 256.36900139 C-90 256 -90 256 -92 254 C-92.19817933 250.90843005 -92.26911252 247.9062945 -92.25396729 244.81347656 C-92.25708727 243.84946049 -92.26020725 242.88544441 -92.26342177 241.89221573 C-92.27143914 238.64162444 -92.2650636 235.39121789 -92.25878906 232.140625 C-92.26149727 229.81848033 -92.26505723 227.49633651 -92.26940918 225.17419434 C-92.27855576 218.85204477 -92.27497959 212.52996021 -92.26865101 206.20780945 C-92.26411381 200.27346488 -92.26756962 194.33912849 -92.2705054 188.40478373 C-92.27621338 175.93490462 -92.26964347 163.46505489 -92.25890467 150.99518061 C-92.24996872 140.28713694 -92.25152064 129.57913663 -92.26074219 118.87109375 C-92.27143657 106.44692648 -92.27566402 94.02278497 -92.26951766 81.59861374 C-92.26639261 75.01792102 -92.26600325 68.4372582 -92.27259064 61.85656738 C-92.27834938 55.67113762 -92.27439428 49.4857901 -92.26280212 43.30036926 C-92.26014763 41.02427813 -92.26093398 38.74818012 -92.26532745 36.47209167 C-92.27075332 33.37680742 -92.26398493 30.28179044 -92.25396729 27.18652344 C-92.25842873 26.27544956 -92.26289017 25.36437569 -92.26748681 24.42569351 C-92.22829998 18.22829998 -92.22829998 18.22829998 -90 16 C-87.19850486 15.81186179 -84.49663997 15.7482499 -81.69482422 15.77294922 C-80.83621796 15.77265717 -79.97761169 15.77236511 -79.09298706 15.77206421 C-76.24678543 15.77346078 -73.40084356 15.78903727 -70.5546875 15.8046875 C-68.58456566 15.80841647 -66.61444198 15.81126399 -64.64431763 15.81326294 C-59.45256452 15.82090854 -54.26092286 15.84056496 -49.06921387 15.8626709 C-43.7740225 15.8831094 -38.47881317 15.89226038 -33.18359375 15.90234375 C-22.78901346 15.92380999 -12.39451599 15.95795708 -2 16 C-2.02320312 15.09636719 -2.04640625 14.19273438 -2.0703125 13.26171875 C-2.08835937 12.08222656 -2.10640625 10.90273437 -2.125 9.6875 C-2.14820312 8.51574219 -2.17140625 7.34398437 -2.1953125 6.13671875 C-2 3 -2 3 0 0 Z M-81 53 C-81 116.36 -81 179.72 -81 245 C-28.2 245 24.6 245 79 245 C79.33 231.8 79.66 218.6 80 205 C89.67528352 195.32471648 107.32135674 203.34196608 121 203 C121 153.5 121 104 121 53 C94.6 53 68.2 53 41 53 C40.67 56.3 40.34 59.6 40 63 C26.8 63 13.6 63 0 63 C-0.33 59.7 -0.66 56.4 -1 53 C-27.4 53 -53.8 53 -81 53 Z " fill="#030201" transform="translate(108,0)"/>
<path d="M0 0 C26.4 0 52.8 0 80 0 C80 2.31 80 4.62 80 7 C79.67 7 79.34 7 79 7 C79 5.02 79 3.04 79 1 C54.58 1 30.16 1 5 1 C5.09053456 30.86628197 5.09053456 30.86628197 5.20898438 60.73242188 C5.26348634 72.91071199 5.31489857 85.08895985 5.34643555 97.26733398 C5.36941727 106.13655921 5.40281732 115.00567371 5.44870156 123.87481111 C5.47263137 128.57048365 5.49136175 133.26604653 5.49761391 137.96177864 C5.50366582 142.383448 5.52366962 146.80483681 5.55427551 151.22640228 C5.563054 152.84728738 5.56677871 154.46820915 5.56500816 156.08911705 C5.56335063 158.30717543 5.58009424 160.52438339 5.60127258 162.74232483 C5.60588155 163.98213639 5.61049051 165.22194796 5.61523914 166.49932957 C6.27849819 172.53386058 8.6712771 177.6712771 13 182 C20.10184318 186.54724698 26.28334023 186.57896332 34.57617188 186.54589844 C35.93695246 186.55464555 37.29772279 186.56513529 38.65847778 186.57722473 C42.33152329 186.60496663 46.00423123 186.60849206 49.67736626 186.60750484 C53.52379702 186.61064418 57.37007802 186.63628352 61.21643066 186.65948486 C68.49060199 186.69997055 75.76468385 186.72036802 83.03895044 186.73345876 C91.32442716 186.74935407 99.60975215 186.78778028 107.89514065 186.82805204 C124.93007181 186.91034931 141.96490491 186.96153109 159 187 C159 176.11 159 165.22 159 154 C159.33 154 159.66 154 160 154 C160 166.54 160 179.08 160 192 C107.2 192 54.4 192 0 192 C0 128.64 0 65.28 0 0 Z " fill="#F9C864" transform="translate(27,53)"/>
<path d="M0 0 C1.00522375 -0.00701996 1.00522375 -0.00701996 2.03075504 -0.01418173 C4.28103871 -0.02616795 6.53071744 -0.01666083 8.78100586 -0.00723267 C10.39232744 -0.01129678 12.00364623 -0.01663775 13.61495972 -0.02316284 C17.99507835 -0.03686144 22.37498545 -0.03152736 26.75510788 -0.02202559 C31.33414032 -0.01444213 35.91315437 -0.02147093 40.4921875 -0.02618408 C48.18256896 -0.03164548 55.87286406 -0.02443997 63.56323242 -0.01016235 C72.4604729 0.00616491 81.35750715 0.00087667 90.25474262 -0.01564157 C97.88707656 -0.02924552 105.51934834 -0.03118145 113.15169048 -0.02332556 C117.71306935 -0.01864303 122.27435121 -0.01804007 126.83572388 -0.02793503 C131.12360435 -0.03658658 135.41121836 -0.03061612 139.69906998 -0.01325226 C141.27488894 -0.00927769 142.85073023 -0.01043799 144.42654037 -0.01704025 C146.57356508 -0.02520795 148.7197297 -0.01499331 150.86669922 0 C152.06942978 0.00113108 153.27216034 0.00226215 154.51133728 0.00342751 C157.43334961 0.38095093 157.43334961 0.38095093 159.32032776 1.71335411 C161.05482975 4.31209015 160.82008317 6.35153803 160.43334961 9.38095093 C156.80539514 11.79958724 155.14132639 11.63222961 150.82200623 11.63491821 C150.14706794 11.63803819 149.47212966 11.64115818 148.7767387 11.6443727 C146.5104133 11.65236338 144.24435485 11.64602504 141.97802734 11.63973999 C140.35523318 11.64244936 138.73244025 11.64600998 137.10964966 11.65036011 C132.6986461 11.65949214 128.28773591 11.6559367 123.87673068 11.64960194 C119.26653713 11.64454702 114.6563517 11.64923189 110.04615784 11.65237427 C102.30452027 11.65601503 94.56292084 11.65121154 86.82128906 11.64169312 C77.86158394 11.63080451 68.9019698 11.63433664 59.94226688 11.64534593 C52.25815438 11.65441108 44.57406932 11.65570798 36.8899532 11.65046859 C32.29676735 11.64734512 27.70362433 11.64694991 23.11044121 11.65354156 C18.79389163 11.65930334 14.47745981 11.65533969 10.160923 11.64375305 C8.57339359 11.64110035 6.98585432 11.6418819 5.39832878 11.64627838 C3.23798683 11.65171129 1.0780267 11.64492767 -1.08229065 11.63491821 C-2.29331735 11.63416416 -3.50434404 11.63341011 -4.75206852 11.63263321 C-7.56665039 11.38095093 -7.56665039 11.38095093 -9.56665039 9.38095093 C-10.11693052 4.2083177 -10.11693052 4.2083177 -8.45753479 1.71335411 C-5.65208123 -0.26349612 -3.40915345 0.00320605 0 0 Z " fill="#070603" transform="translate(52.566650390625,148.61904907226563)"/>
<path d="M0 0 C1.00522375 -0.00701996 1.00522375 -0.00701996 2.03075504 -0.01418173 C4.28103871 -0.02616795 6.53071744 -0.01666083 8.78100586 -0.00723267 C10.39232744 -0.01129678 12.00364623 -0.01663775 13.61495972 -0.02316284 C17.99507835 -0.03686144 22.37498545 -0.03152736 26.75510788 -0.02202559 C31.33414032 -0.01444213 35.91315437 -0.02147093 40.4921875 -0.02618408 C48.18256896 -0.03164548 55.87286406 -0.02443997 63.56323242 -0.01016235 C72.4604729 0.00616491 81.35750715 0.00087667 90.25474262 -0.01564157 C97.88707656 -0.02924552 105.51934834 -0.03118145 113.15169048 -0.02332556 C117.71306935 -0.01864303 122.27435121 -0.01804007 126.83572388 -0.02793503 C131.12360435 -0.03658658 135.41121836 -0.03061612 139.69906998 -0.01325226 C141.27488894 -0.00927769 142.85073023 -0.01043799 144.42654037 -0.01704025 C146.57356508 -0.02520795 148.7197297 -0.01499331 150.86669922 0 C152.06942978 0.00113108 153.27216034 0.00226215 154.51133728 0.00342751 C157.43334961 0.38095093 157.43334961 0.38095093 159.32032776 1.71335411 C161.05482975 4.31209015 160.82008317 6.35153803 160.43334961 9.38095093 C156.80539514 11.79958724 155.14132639 11.63222961 150.82200623 11.63491821 C150.14706794 11.63803819 149.47212966 11.64115818 148.7767387 11.6443727 C146.5104133 11.65236338 144.24435485 11.64602504 141.97802734 11.63973999 C140.35523318 11.64244936 138.73244025 11.64600998 137.10964966 11.65036011 C132.6986461 11.65949214 128.28773591 11.6559367 123.87673068 11.64960194 C119.26653713 11.64454702 114.6563517 11.64923189 110.04615784 11.65237427 C102.30452027 11.65601503 94.56292084 11.65121154 86.82128906 11.64169312 C77.86158394 11.63080451 68.9019698 11.63433664 59.94226688 11.64534593 C52.25815438 11.65441108 44.57406932 11.65570798 36.8899532 11.65046859 C32.29676735 11.64734512 27.70362433 11.64694991 23.11044121 11.65354156 C18.79389163 11.65930334 14.47745981 11.65533969 10.160923 11.64375305 C8.57339359 11.64110035 6.98585432 11.6418819 5.39832878 11.64627838 C3.23798683 11.65171129 1.0780267 11.64492767 -1.08229065 11.63491821 C-2.29331735 11.63416416 -3.50434404 11.63341011 -4.75206852 11.63263321 C-7.56665039 11.38095093 -7.56665039 11.38095093 -9.56665039 9.38095093 C-10.11693052 4.2083177 -10.11693052 4.2083177 -8.45753479 1.71335411 C-5.65208123 -0.26349612 -3.40915345 0.00320605 0 0 Z " fill="#070603" transform="translate(52.566650390625,116.61904907226563)"/>
<path d="M0 0 C1.00522375 -0.00701996 1.00522375 -0.00701996 2.03075504 -0.01418173 C4.28103871 -0.02616795 6.53071744 -0.01666083 8.78100586 -0.00723267 C10.39232744 -0.01129678 12.00364623 -0.01663775 13.61495972 -0.02316284 C17.99507835 -0.03686144 22.37498545 -0.03152736 26.75510788 -0.02202559 C31.33414032 -0.01444213 35.91315437 -0.02147093 40.4921875 -0.02618408 C48.18256896 -0.03164548 55.87286406 -0.02443997 63.56323242 -0.01016235 C72.4604729 0.00616491 81.35750715 0.00087667 90.25474262 -0.01564157 C97.88707656 -0.02924552 105.51934834 -0.03118145 113.15169048 -0.02332556 C117.71306935 -0.01864303 122.27435121 -0.01804007 126.83572388 -0.02793503 C131.12360435 -0.03658658 135.41121836 -0.03061612 139.69906998 -0.01325226 C141.27488894 -0.00927769 142.85073023 -0.01043799 144.42654037 -0.01704025 C146.57356508 -0.02520795 148.7197297 -0.01499331 150.86669922 0 C152.06942978 0.00113108 153.27216034 0.00226215 154.51133728 0.00342751 C157.43334961 0.38095093 157.43334961 0.38095093 159.32032776 1.71335411 C161.05482975 4.31209015 160.82008317 6.35153803 160.43334961 9.38095093 C156.80539514 11.79958724 155.14132639 11.63222961 150.82200623 11.63491821 C150.14706794 11.63803819 149.47212966 11.64115818 148.7767387 11.6443727 C146.5104133 11.65236338 144.24435485 11.64602504 141.97802734 11.63973999 C140.35523318 11.64244936 138.73244025 11.64600998 137.10964966 11.65036011 C132.6986461 11.65949214 128.28773591 11.6559367 123.87673068 11.64960194 C119.26653713 11.64454702 114.6563517 11.64923189 110.04615784 11.65237427 C102.30452027 11.65601503 94.56292084 11.65121154 86.82128906 11.64169312 C77.86158394 11.63080451 68.9019698 11.63433664 59.94226688 11.64534593 C52.25815438 11.65441108 44.57406932 11.65570798 36.8899532 11.65046859 C32.29676735 11.64734512 27.70362433 11.64694991 23.11044121 11.65354156 C18.79389163 11.65930334 14.47745981 11.65533969 10.160923 11.64375305 C8.57339359 11.64110035 6.98585432 11.6418819 5.39832878 11.64627838 C3.23798683 11.65171129 1.0780267 11.64492767 -1.08229065 11.63491821 C-2.29331735 11.63416416 -3.50434404 11.63341011 -4.75206852 11.63263321 C-7.56665039 11.38095093 -7.56665039 11.38095093 -9.56665039 9.38095093 C-10.11693052 4.2083177 -10.11693052 4.2083177 -8.45753479 1.71335411 C-5.65208123 -0.26349612 -3.40915345 0.00320605 0 0 Z " fill="#070603" transform="translate(52.566650390625,84.61904907226563)"/>
<path d="M0 0 C10.41343311 -0.02255116 20.82685013 -0.04091517 31.24030209 -0.05181217 C36.07516827 -0.05704097 40.91001694 -0.06413854 45.74487305 -0.07543945 C50.4067712 -0.08626847 55.06865246 -0.09227686 59.73056221 -0.09487724 C61.51324288 -0.09673147 63.29592259 -0.10035203 65.07859612 -0.10573006 C67.5666596 -0.11294069 70.05465243 -0.11399093 72.54272461 -0.11352539 C73.28718842 -0.11712067 74.03165222 -0.12071594 74.79867554 -0.12442017 C79.88594784 -0.11405216 79.88594784 -0.11405216 81 1 C81 6.28 81 11.56 81 17 C54.27 17 27.54 17 0 17 C0 11.39 0 5.78 0 0 Z " fill="#FFCC66" transform="translate(149,26)"/>
<path d="M0 0 C26.4 0 52.8 0 80 0 C80 5.61 80 11.22 80 17 C53.6 17 27.2 17 0 17 C0 11.39 0 5.78 0 0 Z " fill="#FFCB65" transform="translate(27,26)"/>
<path d="M0 0 C0.81491913 -0.00525696 1.62983826 -0.01051392 2.4694519 -0.01593018 C5.16602689 -0.02914542 7.86201265 -0.02038684 10.55859375 -0.01025391 C12.43042108 -0.01227421 14.30224764 -0.01518528 16.17407227 -0.01895142 C20.09822072 -0.02337683 24.0221644 -0.01693673 27.94628906 -0.00292969 C32.98049722 0.01416233 38.01422559 0.0043223 43.04841614 -0.01364708 C46.91397731 -0.02447905 50.77942443 -0.02104128 54.64498901 -0.0132637 C56.50137387 -0.01126007 58.35776902 -0.01372668 60.21414185 -0.02070236 C62.80710344 -0.02830722 65.39928418 -0.01672655 67.9921875 0 C68.76215057 -0.00607269 69.53211365 -0.01214539 70.32540894 -0.0184021 C75.48468376 0.04336713 75.48468376 0.04336713 77.97290039 1.72103882 C79.58054328 4.34045911 79.37744537 6.4009292 78.99609375 9.38818359 C75.22522552 11.90209575 72.25093607 11.66961013 67.88452148 11.64697266 C67.05824249 11.65047729 66.2319635 11.65398193 65.38064575 11.65759277 C62.64690779 11.66640213 59.91342814 11.66056429 57.1796875 11.65380859 C55.28304494 11.65515534 53.38640272 11.65709596 51.48976135 11.65960693 C47.51438104 11.66255701 43.53909058 11.65826379 39.5637207 11.64892578 C34.46000499 11.63752356 29.35649943 11.64409633 24.2527914 11.65607071 C20.33667914 11.66328582 16.42061699 11.66100313 12.50450325 11.65581512 C10.62217242 11.65447806 8.73983709 11.65612831 6.85751152 11.66077423 C4.23097489 11.66583459 1.60478238 11.6581366 -1.02172852 11.64697266 C-2.19609215 11.65304535 -2.19609215 11.65304535 -3.3941803 11.65924072 C-8.77537621 11.61671363 -8.77537621 11.61671363 -11.00390625 9.38818359 C-11.54760126 4.2774505 -11.54760126 4.2774505 -9.98461914 1.72103882 C-6.87998053 -0.36812505 -3.6162427 -0.02852128 0 0 Z " fill="#080603" transform="translate(54.00390625,180.61181640625)"/>
<path d="M0 0 C7.26 0 14.52 0 22 0 C22 14.52 22 29.04 22 44 C14.74 44 7.48 44 0 44 C0 29.48 0 14.96 0 0 Z " fill="#C34D5D" transform="translate(117,10)"/>
<path d="M0 0 C26.4 0 52.8 0 80 0 C80 5.61 80 11.22 80 17 C53.6 17 27.2 17 0 17 C0 11.39 0 5.78 0 0 Z M6 1 C8.84643949 5.74406581 11.08635197 8.54317599 16 11 C18.0016875 11.09144783 20.00648256 11.11751697 22.01025391 11.11352539 C23.27141022 11.11344986 24.53256653 11.11337433 25.8319397 11.11329651 C27.21348103 11.10818949 28.59502196 11.10297349 29.9765625 11.09765625 C31.3861791 11.09579144 32.79579634 11.09436783 34.20541382 11.09336853 C37.91753932 11.08954833 41.62962578 11.07972228 45.34173584 11.06866455 C49.12886019 11.05843975 52.91599083 11.05386862 56.703125 11.04882812 C64.13543448 11.03809958 71.56771177 11.02102911 79 11 C79 7.7 79 4.4 79 1 C54.91 1 30.82 1 6 1 Z " fill="#DEA34B" transform="translate(27,26)"/>
<path d="M0 0 C10.41343311 -0.02255116 20.82685013 -0.04091517 31.24030209 -0.05181217 C36.07516827 -0.05704097 40.91001694 -0.06413854 45.74487305 -0.07543945 C50.4067712 -0.08626847 55.06865246 -0.09227686 59.73056221 -0.09487724 C61.51324288 -0.09673147 63.29592259 -0.10035203 65.07859612 -0.10573006 C67.5666596 -0.11294069 70.05465243 -0.11399093 72.54272461 -0.11352539 C73.28718842 -0.11712067 74.03165222 -0.12071594 74.79867554 -0.12442017 C79.88594784 -0.11405216 79.88594784 -0.11405216 81 1 C81 6.28 81 11.56 81 17 C54.27 17 27.54 17 0 17 C0 11.39 0 5.78 0 0 Z M1 1 C1 4.3 1 7.6 1 11 C27.07 11 53.14 11 80 11 C80 7.7 80 4.4 80 1 C53.93 1 27.86 1 1 1 Z " fill="#D59D48" transform="translate(149,26)"/>
<path d="M0 0 C4.95 0 9.9 0 15 0 C15 11.88 15 23.76 15 36 C8.22530329 33.74176776 8.22530329 33.74176776 5.25 30.125 C4.67765625 29.44695313 4.1053125 28.76890625 3.515625 28.0703125 C0.71442476 24.24393074 -0.25081558 21.57013959 -0.1953125 16.796875 C-0.18886719 15.8171875 -0.18242188 14.8375 -0.17578125 13.828125 C-0.15902344 12.81234375 -0.14226562 11.7965625 -0.125 10.75 C-0.11597656 9.71875 -0.10695313 8.6875 -0.09765625 7.625 C-0.07412138 5.08323384 -0.03825131 2.54158728 0 0 Z " fill="#F16573" transform="translate(123,11)"/>
<path d="M0 0 C7.92 0 15.84 0 24 0 C22.09442006 3.81115988 20.46226566 5.79515686 17.5 8.765625 C16.1696875 10.09980469 16.1696875 10.09980469 14.8125 11.4609375 C13.884375 12.38132813 12.95625 13.30171875 12 14.25 C11.071875 15.18585938 10.14375 16.12171875 9.1875 17.0859375 C8.300625 17.97023437 7.41375 18.85453125 6.5 19.765625 C5.6853125 20.57805664 4.870625 21.39048828 4.03125 22.22753906 C2 24 2 24 0 24 C0 16.08 0 8.16 0 0 Z " fill="#ECAC4E" transform="translate(197,213)"/>
</svg>
